<svg version="1.1" id="svg716" width="1200.6664" height="1204.6176" viewBox="0 0 1200.6664 1204.6176"
        sodipodi:docname="atwood.svg" inkscape:export-filename="atwood.svg" inkscape:export-xdpi="96"
        inkscape:export-ydpi="96" xmlns:inkscape="http://www.inkscape.org/namespaces/inkscape"
        xmlns:sodipodi="http://sodipodi.sourceforge.net/DTD/sodipodi-0.dtd" xmlns="http://www.w3.org/2000/svg"
        xmlns:svg="http://www.w3.org/2000/svg">
        <defs id="defs720" />
        <sodipodi:namedview id="namedview718" pagecolor="#ffffff" bordercolor="#000000" borderopacity="0.25"
            inkscape:showpageshadow="2" inkscape:pageopacity="0.0" inkscape:pagecheckerboard="0"
            inkscape:deskcolor="#d1d1d1" showgrid="true" showguides="true">
            <inkscape:grid type="xygrid" id="grid830" originx="2.356635" originy="-54.643363" />
        </sodipodi:namedview>
        <g inkscape:groupmode="layer" inkscape:label="Image" id="g722" transform="translate(2.3566349,-54.643361)">
            <path id="rect3364" d="m 136.7,57 v 138 h -137 v 93.90429 h 180.9043 v -51 h 50 V 57 Z"
                inkscape:label="7" />
            <rect id="rect3364-1" width="93.903931" height="180.90392" x="230.95197" y="57.048054" inkscape:label="9" />
            <rect id="rect3364-7" width="93.903931" height="180.90392" x="324.95197" y="57.048046"
                inkscape:label="11" />
            <rect id="rect3364-1-0" width="86.690971" height="230.69623" x="419.26102" y="57.261005"
                inkscape:label="13" />
            <path id="rect3364-79"
                d="M 967.00002,56.691406 V 237.5957 h 48.35738 v 51.30859 h 180.9043 V 195 H 1060.9043 V 56.691406 Z"
                inkscape:label="21" />
            <rect id="rect3364-1-2" width="93.903931" height="180.90392" x="-966.95209" y="56.73901"
                transform="scale(-1,1)" inkscape:label="19" />
            <rect id="rect3364-7-0" width="93.903931" height="180.90392" x="-872.95209" y="56.738995"
                transform="scale(-1,1)" inkscape:label="17" />
            <rect id="rect3364-1-0-2" width="86.690971" height="230.69623" x="-778.64301" y="56.951962"
                transform="scale(-1,1)" inkscape:label="15" />
            <rect id="rect3364-1-7" width="93.903931" height="180.90392" x="288.95197" y="0.048069853"
                inkscape:label="5" transform="matrix(0,1,1,0,0,0)" />
            <rect id="rect3364-7-5" width="93.903931" height="180.90392" x="382.95197" y="0.048054595"
                inkscape:label="3" transform="matrix(0,1,1,0,0,0)" />
            <rect id="rect3364-1-0-9" width="86.690971" height="230.69623" x="477.26102" y="0.26102152"
                inkscape:label="1" transform="matrix(0,1,1,0,0,0)" />
            <rect id="rect3364-1-2-2" width="93.903931" height="180.90392" x="-1024.952" y="-0.26098165"
                transform="rotate(-90)" inkscape:label="4" />
            <path id="rect3364-79-2"
                d="m -0.30859,1025 v 93.9043 h 135.35742 v 138.3086 h 93.90234 V 1076.3086 H 180.5957 V 1025 Z"
                inkscape:label="6" />
            <rect id="rect3364-7-0-8" width="93.903931" height="180.90392" x="-930.95203" y="-0.26099691"
                transform="rotate(-90)" inkscape:label="2" />
            <rect id="rect3364-1-0-2-9" width="86.690971" height="230.69623" x="-836.64294" y="-0.04803"
                transform="rotate(-90)" inkscape:label="0" />
            <path id="rect3364-2" d="m 1015.0488,1025 v 51 h -49.99997 v 180.9043 h 93.90237 v -138 h 137 V 1025 Z"
                inkscape:label="20" />
            <rect id="rect3364-1-06" width="93.903931" height="180.90392" x="-965" y="-1256.8558" inkscape:label="18"
                transform="scale(-1)" />
            <rect id="rect3364-7-1" width="93.903931" height="180.90392" x="-871" y="-1256.8558" inkscape:label="16"
                transform="scale(-1)" />
            <rect id="rect3364-1-0-5" width="86.690971" height="230.69623" x="-776.69092" y="-1256.6429"
                inkscape:label="14" transform="scale(-1)" />
            <rect id="rect3364-1-2-4" width="93.903931" height="180.90392" x="228.99986" y="-1257.1649"
                transform="scale(1,-1)" inkscape:label="8" />
            <rect id="rect3364-7-0-7" width="93.903931" height="180.90392" x="322.99985" y="-1257.1649"
                transform="scale(1,-1)" inkscape:label="10" />
            <rect id="rect3364-1-0-2-6" width="86.690971" height="230.69623" x="417.30893" y="-1256.9519"
                transform="scale(1,-1)" inkscape:label="12" />
            <rect id="rect3364-1-7-9" width="93.903931" height="180.90392" x="-1024.9519" y="-1195.9038"
                inkscape:label="22" transform="matrix(0,-1,-1,0,0,0)" />
            <rect id="rect3364-7-5-3" width="93.903931" height="180.90392" x="-930.9519" y="-1195.9038"
                inkscape:label="24" transform="matrix(0,-1,-1,0,0,0)" />
            <rect id="rect3364-1-0-9-7" width="86.690971" height="230.69623" x="-836.64288" y="-1195.6908"
                inkscape:label="26" transform="matrix(0,-1,-1,0,0,0)" />
            <rect id="rect3364-1-2-2-5" width="93.903931" height="180.90392" x="288.95187" y="-1196.2129"
                transform="rotate(90)" inkscape:label="23" />
            <rect id="rect3364-7-0-8-2" width="93.903931" height="180.90392" x="382.95187" y="-1196.2129"
                transform="rotate(90)" inkscape:label="25" />
            <rect id="rect3364-1-0-2-9-5" width="86.690971" height="230.69623" x="477.26096" y="-1195.9999"
                transform="rotate(90)" inkscape:label="27" />
        </g>
    </svg>
